<?xml version="1.0" encoding="utf-8"?>
<!-- Generator: Adobe Illustrator 19.0.0, SVG Export Plug-In . SVG Version: 6.00 Build 0)  -->
<svg version="1.1" baseProfile="tiny" id="IEEE_Master_Brand"
	 xmlns="http://www.w3.org/2000/svg" xmlns:xlink="http://www.w3.org/1999/xlink" x="0px" y="0px" viewBox="0 0 251 79"
	 xml:space="preserve">
<polygon points="85.4,66.5 85.4,13.4 100.1,13.4 100.1,66.5 85.4,66.5 "/>
<polygon points="107.8,66.5 107.8,13.4 148.2,13.4 148.2,23.7 122.5,23.7 122.5,34.7 146.1,34.7 146.1,44.9 122.5,44.9 122.5,56.2 
	148.2,56.2 148.2,66.5 107.8,66.5 "/>
<polygon points="156.4,66.5 156.4,13.4 196.8,13.4 196.8,23.7 171.1,23.7 171.1,34.7 194.7,34.7 194.7,44.9 171.1,44.9 171.1,56.2 
	196.8,56.2 196.8,66.5 156.4,66.5 "/>
<polygon points="205,66.5 205,13.4 245.4,13.4 245.4,23.7 219.7,23.7 219.7,34.7 243.4,34.7 243.4,44.9 219.7,44.9 219.7,56.2 
	245.4,56.2 245.4,66.5 205,66.5 "/>
<rect x="5.3" y="4.2" fill="none" width="240.1" height="70"/>
<path d="M38.3,14c2.3-1.8,5.3-0.3,7.3,1.4c2.1,1.6,4.2,3.4,6.1,5.2l0.3,0.2c5.2,4.8,10.1,10.2,14.1,15.9c0.6,1,1.2,2.1,0.9,3.4
	c-1.3,3.3-4,6-6.4,8.9C55.4,54.5,50,59.8,44,64.1c-1.2,0.9-2.9,1.7-4.3,1c-4.4-2.3-8.2-6.1-12.1-9.6c-4.5-4.2-9-9-12.4-14.1
	c-0.5-0.7-0.7-1.6-0.6-2.5c0.4-1.8,1.6-3.2,2.8-4.7c4-5.1,9-10,14-14.5c0.1-0.1,0.3-0.4,0.5-0.5C33.9,17.3,36.1,15.6,38.3,14
	L38.3,14z M45.2,8.7l-2.7-3.8c-0.3-0.2-0.7-0.5-1.1-0.6c-0.8-0.3-1.6,0.1-2.3,0.6l-4.8,6.2c-7.7,9.5-16.8,18.4-26.7,25.3
	c-0.8,0.6-2,1.2-2.2,2.2c-0.3,0.9,0.2,1.7,0.8,2.2c8,5.5,15.6,12,22.3,19.4c1.2,1.3,2.2,2.5,3.4,3.7c2,2.6,4.3,5.3,6.1,8.1
	c0.6,0.6,0.7,1.6,1.6,1.9c0.7,0.2,1.6,0.4,2.2,0l0.7-0.7c8.2-11.7,18.7-22.1,30.3-30.6c1.2-1,3.4-1.4,3.4-3.4
	c-0.1-0.9-0.6-1.8-1.4-2.3l-0.2,0c-6-4.1-11.6-8.7-16.9-13.9L52,17C49.6,14.3,47.3,11.4,45.2,8.7L45.2,8.7z M39.2,15.5
	c2.4-1.6,4.5,0.6,6.4,2c7.2,5.8,13.9,12.4,19.1,19.8c0.7,1,0.9,2.5,0.4,3.5c-1.3,2.2-3.1,4.3-4.9,6.3v0.1c-4.3,4.5-8.8,9.2-13.6,13
	c-2.4,1.4-4.6,4.6-7.6,2.6c-7-5.1-13.6-11.4-19.3-18.2c-1-1.5-2.5-2.7-3.1-4.4c-0.9-2.3,1.1-3.9,2.3-5.7
	C24.6,27.6,31.7,20.6,39.2,15.5L39.2,15.5z M40.7,20.1L40,22.2l-3.3,9.3c0.8,0.1,1.8,0,2.6,0.1v0.1l-0.5,10.5l0.1,0.1
	c1,0.1,2.3,0.2,3.4,0v-0.2L42,31.9l0.1-0.3l2.9,0C43.5,27.8,42.1,24,40.7,20.1L40.7,20.1L40.7,20.1z M29.6,34.8
	c-1.8,0.9-4.5,2.3-4.2,4.8c0.4,1.4,1.9,2.2,3,2.8c6.5,2.9,15.1,2.9,21.9,0.8c1.7-0.7,4-1.6,4.3-3.7c0-1.7-1.8-2.8-3.1-3.4V36
	c0.5-0.2,1-0.3,1.4-0.4v0c-2.3-0.4-4.5-1-6.7-1.6c0.4,1,0.7,2,1.1,3c0.7-0.2,1.3-0.4,2.1-0.5c1.2,0.5,2.8,1.1,3,2.6
	c0.1,1.4-1.4,2-2.3,2.6c-5,1.8-10.7,2-15.9,0.6c-1.4-0.5-3.5-1-3.7-2.9c1-2.4,3.7-2.9,5.9-3.5c-1.1-0.7-2.3-1.4-3.4-2.2
	C31.8,33.8,30.7,34.3,29.6,34.8L29.6,34.8z M38.9,45.3c-0.2,3.7-0.2,7.2-0.5,11c1.5,0.1,3.2,0.3,4.7,0l-0.5-10.5l-0.1-0.5
	C41.3,45.3,40.2,45.4,38.9,45.3L38.9,45.3z"/>
<g>
	<path fill-rule="evenodd" d="M52.7,66.7c-1.3,0-2.5,0.9-2.5,2.5c0,1.6,1.2,2.5,2.5,2.5c1.3,0,2.5-0.9,2.5-2.5
		C55.1,67.6,54,66.7,52.7,66.7z M52.7,71L52.7,71c-1,0-1.8-0.8-1.8-1.9c0-1.1,0.8-1.9,1.8-1.9c1,0,1.8,0.8,1.8,1.9
		C54.4,70.3,53.6,71,52.7,71z M53.8,68.6c0-0.6-0.4-0.8-1.1-0.8h-1v2.7h0.6v-1.1h0.3l0.6,1.1h0.7l-0.7-1.2
		C53.5,69.3,53.8,69.1,53.8,68.6z M52.8,68.9h-0.5v-0.6h0.4c0.2,0,0.5,0,0.5,0.3C53.2,68.8,53,68.9,52.8,68.9z"/>
</g>
</svg>
