<?xml version="1.0" encoding="utf-8"?>
<!-- Generator: Adobe Illustrator 19.0.0, SVG Export Plug-In . SVG Version: 6.00 Build 0)  -->
<svg version="1.1" baseProfile="tiny" id="IEEE_Master_Brand"
	 xmlns="http://www.w3.org/2000/svg" xmlns:xlink="http://www.w3.org/1999/xlink" x="0px" y="0px" viewBox="-234 36 150 47.2"
	 xml:space="preserve">
<g>
	<polygon fill="#FFFFFF" points="-184,75.9 -184,42.7 -174.8,42.7 -174.8,75.9 	"/>
	<polygon fill="#FFFFFF" points="-170,75.9 -170,42.7 -144.7,42.7 -144.7,49.2 -160.8,49.2 -160.8,56.1 -146,56.1 -146,62.4 
		-160.8,62.4 -160.8,69.5 -144.7,69.5 -144.7,75.9 	"/>
	<polygon fill="#FFFFFF" points="-139.6,75.9 -139.6,42.7 -114.4,42.7 -114.4,49.2 -130.4,49.2 -130.4,56.1 -115.7,56.1 
		-115.7,62.4 -130.4,62.4 -130.4,69.5 -114.4,69.5 -114.4,75.9 	"/>
	<polygon fill="#FFFFFF" points="-109.2,75.9 -109.2,42.7 -84,42.7 -84,49.2 -100.1,49.2 -100.1,56.1 -85.2,56.1 -85.2,62.4 
		-100.1,62.4 -100.1,69.5 -84,69.5 -84,75.9 	"/>
	<path fill="#FFFFFF" d="M-213.4,43.1c1.4-1.1,3.3-0.2,4.6,0.9c1.3,1,2.6,2.1,3.8,3.2l0.2,0.1c3.2,3,6.3,6.4,8.8,9.9
		c0.4,0.6,0.7,1.3,0.6,2.1c-0.8,2.1-2.5,3.7-4,5.6c-3.2,3.4-6.6,6.7-10.4,9.4c-0.7,0.6-1.8,1.1-2.7,0.6c-2.7-1.4-5.1-3.8-7.6-6
		c-2.8-2.6-5.6-5.6-7.7-8.8c-0.3-0.4-0.4-1-0.4-1.6c0.2-1.1,1-2,1.7-2.9c2.5-3.2,5.6-6.2,8.7-9.1c0.1-0.1,0.2-0.2,0.3-0.3
		C-216.1,45.2-214.8,44.1-213.4,43.1L-213.4,43.1z M-209.1,39.8l-1.7-2.4c-0.2-0.1-0.4-0.3-0.7-0.4c-0.5-0.2-1,0.1-1.4,0.4l-3,3.9
		c-4.8,5.9-10.5,11.5-16.7,15.8c-0.5,0.4-1.2,0.7-1.4,1.4c-0.2,0.6,0.1,1.1,0.5,1.4c5,3.4,9.7,7.5,13.9,12.1
		c0.7,0.8,1.4,1.6,2.1,2.3c1.2,1.6,2.7,3.3,3.8,5.1c0.4,0.4,0.4,1,1,1.2c0.4,0.1,1,0.2,1.4,0l0.4-0.4c5.1-7.3,11.7-13.8,18.9-19.1
		c0.7-0.6,2.1-0.9,2.1-2.1c-0.1-0.6-0.4-1.1-0.9-1.4h-0.1c-3.7-2.6-7.2-5.4-10.6-8.7l-3.6-3.7C-206.3,43.3-207.8,41.5-209.1,39.8
		L-209.1,39.8z M-212.8,44.1c1.5-1,2.8,0.4,4,1.2c4.5,3.6,8.7,7.7,11.9,12.4c0.4,0.6,0.6,1.6,0.2,2.2c-0.8,1.4-1.9,2.7-3.1,3.9v0.1
		c-2.7,2.8-5.5,5.7-8.5,8.1c-1.5,0.9-2.9,2.9-4.7,1.6c-4.4-3.2-8.5-7.1-12.1-11.4c-0.6-0.9-1.6-1.7-1.9-2.7
		c-0.6-1.4,0.7-2.4,1.4-3.6C-221.9,51.6-217.5,47.2-212.8,44.1L-212.8,44.1z M-211.9,46.9l-0.4,1.3l-2.1,5.8c0.5,0.1,1.1,0,1.6,0.1
		v0.1l-0.3,6.6l0.1,0.1c0.6,0.1,1.4,0.1,2.1,0v-0.1l-0.2-6.4l0.1-0.2h1.8C-210.1,51.7-211,49.4-211.9,46.9L-211.9,46.9L-211.9,46.9z
		 M-218.8,56.1c-1.1,0.6-2.8,1.4-2.6,3c0.2,0.9,1.2,1.4,1.9,1.7c4.1,1.8,9.4,1.8,13.7,0.5c1.1-0.4,2.5-1,2.7-2.3
		c0-1.1-1.1-1.7-1.9-2.1v-0.1c0.3-0.1,0.6-0.2,0.9-0.2l0,0c-1.4-0.2-2.8-0.6-4.2-1c0.2,0.6,0.4,1.2,0.7,1.9c0.4-0.1,0.8-0.2,1.3-0.3
		c0.7,0.3,1.7,0.7,1.9,1.6c0.1,0.9-0.9,1.2-1.4,1.6c-3.1,1.1-6.7,1.2-9.9,0.4c-0.9-0.3-2.2-0.6-2.3-1.8c0.6-1.5,2.3-1.8,3.7-2.2
		c-0.7-0.4-1.4-0.9-2.1-1.4C-217.4,55.5-218.1,55.8-218.8,56.1L-218.8,56.1z M-213,62.7c-0.1,2.3-0.1,4.5-0.3,6.9
		c0.9,0.1,2,0.2,2.9,0l-0.3-6.6l-0.1-0.3C-211.5,62.7-212.2,62.7-213,62.7L-213,62.7z"/>
	<g>
		<path fill="#FFFFFF" d="M-204.4,76c-0.8,0-1.6,0.6-1.6,1.6s0.7,1.6,1.6,1.6c0.8,0,1.6-0.6,1.6-1.6C-202.9,76.6-203.6,76-204.4,76z
			 M-204.4,78.7L-204.4,78.7c-0.6,0-1.1-0.5-1.1-1.2c0-0.7,0.5-1.2,1.1-1.2s1.1,0.5,1.1,1.2C-203.3,78.3-203.8,78.7-204.4,78.7z
			 M-203.7,77.2c0-0.4-0.2-0.5-0.7-0.5h-0.6v1.7h0.4v-0.7h0.2l0.4,0.7h0.4l-0.4-0.7C-203.9,77.7-203.7,77.5-203.7,77.2z
			 M-204.3,77.4h-0.3V77h0.2c0.1,0,0.3,0,0.3,0.2C-204.1,77.4-204.2,77.4-204.3,77.4z"/>
	</g>
</g>
</svg>
