<?xml version="1.0" encoding="utf-8"?>
<!-- Generator: Adobe Illustrator 19.0.0, SVG Export Plug-In . SVG Version: 6.00 Build 0)  -->
<svg version="1.1" baseProfile="tiny"
	 id="svg2" xmlns:svg="http://www.w3.org/2000/svg" xmlns:dc="http://purl.org/dc/elements/1.1/" xmlns:rdf="http://www.w3.org/1999/02/22-rdf-syntax-ns#" xmlns:cc="http://creativecommons.org/ns#"
	 xmlns="http://www.w3.org/2000/svg" xmlns:xlink="http://www.w3.org/1999/xlink" x="0px" y="0px" viewBox="-229 151 180 180"
	 xml:space="preserve">
<g transform="translate(90,90)">
	<circle fill="#FFFFFF" cx="-248.3" cy="166.4" r="3"/>
	<circle fill="#FEFEFE" cx="-227.5" cy="122.5" r="3"/>
	<circle fill="#FDFDFD" cx="-212.5" cy="172.3" r="3"/>
	<circle fill="#FDFDFD" cx="-259.4" cy="144.3" r="3"/>
	<circle fill="#FCFCFC" cx="-203.6" cy="132.8" r="3"/>
	<circle fill="#FBFBFB" cx="-238.3" cy="180.7" r="3"/>
	<circle fill="#FAFAFA" cx="-245.2" cy="120" r="3"/>
	<circle fill="#F9F9F9" cx="-197.8" cy="161.2" r="3"/>
	<circle fill="#F8F8F8" cx="-262.2" cy="162.9" r="3"/>
	<circle fill="#F8F8F8" cx="-214.7" cy="117.1" r="3"/>
	<circle fill="#F7F7F7" cx="-218.9" cy="184.4" r="3"/>
	<circle fill="#F6F6F6" cx="-262.2" cy="130.8" r="3"/>
	<circle fill="#F5F5F5" cx="-192.7" cy="141.3" r="3"/>
	<circle fill="#F4F4F4" cx="-252.2" cy="181.2" r="3"/>
	<circle fill="#F3F3F3" cx="-234.9" cy="110.5" r="3"/>
	<circle fill="#F3F3F3" cx="-199.3" cy="175.3" r="3"/>
	<circle fill="#F2F2F2" cx="-270.5" cy="151.2" r="3"/>
	<circle fill="#F1F1F1" cx="-200.7" cy="120.4" r="3"/>
	<circle fill="#F0F0F0" cx="-231.8" cy="191.3" r="3"/>
	<circle fill="#EFEFEF" cx="-257" cy="117" r="3"/>
	<circle fill="#EFEFEF" cx="-187.4" cy="155.2" r="3"/>
	<circle fill="#EEEEEE" cx="-265.6" cy="174.3" r="3"/>
	<circle fill="#EDEDED" cx="-220.2" cy="106.6" r="3"/>
	<circle fill="#ECECEC" cx="-207.8" cy="188.1" r="3"/>
	<circle fill="#EBEBEB" cx="-272.8" cy="135.8" r="3"/>
	<circle fill="#EAEAEA" cx="-188.6" cy="130.4" r="3"/>
	<circle fill="#EAEAEA" cx="-247.6" cy="191.9" r="3"/>
	<circle fill="#E9E9E9" cx="-245.6" cy="105.8" r="3"/>
	<circle fill="#E8E8E8" cx="-188.4" cy="171.3" r="3"/>
	<circle fill="#E7E7E7" cx="-275.7" cy="161.6" r="3"/>
	<circle fill="#E6E6E6" cx="-204" cy="109.3" r="3"/>
	<circle fill="#E5E5E5" cx="-221.7" cy="197.1" r="3"/>
	<circle fill="#E5E5E5" cx="-268.4" cy="119.7" r="3"/>
	<circle fill="#E4E4E4" cx="-180.9" cy="145.5" r="3"/>
	<circle fill="#E3E3E3" cx="-263.6" cy="185.9" r="3"/>
	<circle fill="#E2E2E2" cx="-229.6" cy="99.5" r="3"/>
	<circle fill="#E1E1E1" cx="-196" cy="186.9" r="3"/>
	<circle fill="#E1E1E1" cx="-280.5" cy="144.8" r="3"/>
	<circle fill="#E0E0E0" cx="-189.1" cy="118.5" r="3"/>
	<circle fill="#DFDFDF" cx="-239.1" cy="200.3" r="3"/>
	<circle fill="#DEDEDE" cx="-257.6" cy="105.5" r="3"/>
	<circle fill="#DDDDDD" cx="-179.3" cy="163.4" r="3"/>
	<circle fill="#DCDCDC" cx="-276.9" cy="173.6" r="3"/>
	<circle fill="#DCDCDC" cx="-211.4" cy="99.7" r="3"/>
	<circle fill="#DBDBDB" cx="-209.7" cy="199.1" r="3"/>
	<circle fill="#DADADA" cx="-278.6" cy="126.4" r="3"/>
	<circle fill="#D9D9D9" cx="-178" cy="133.5" r="3"/>
	<circle fill="#D8D8D8" cx="-257.5" cy="196.7" r="3"/>
	<circle fill="#D7D7D7" cx="-241.4" cy="95.7" r="3"/>
	<circle fill="#D7D7D7" cx="-184.8" cy="181.6" r="3"/>
	<circle fill="#D6D6D6" cx="-285.2" cy="156.4" r="3"/>
	<circle fill="#D5D5D5" cx="-193.6" cy="106.8" r="3"/>
	<circle fill="#D4D4D4" cx="-227.8" cy="205.9" r="3"/>
	<circle fill="#D3D3D3" cx="-269.7" cy="109.1" r="3"/>
	<circle fill="#D3D3D3" cx="-172.9" cy="152.4" r="3"/>
	<circle fill="#D2D2D2" cx="-274.2" cy="186.1" r="3"/>
	<circle fill="#D1D1D1" cx="-221.9" cy="92.3" r="3"/>
	<circle fill="#D0D0D0" cx="-197" cy="197.3" r="3"/>
	<circle fill="#CFCFCF" cx="-286.8" cy="136.4" r="3"/>
	<circle fill="#CECECE" cx="-178.8" cy="120.6" r="3"/>
	<circle fill="#CECECE" cx="-248.1" cy="205.7" r="3"/>
	<circle fill="#CDCDCD" cx="-254.5" cy="95.5" r="3"/>
	<circle fill="#CCCCCC" cx="-174.9" cy="172.8" r="3"/>
	<circle fill="#CBCBCB" cx="-286.4" cy="169.5" r="3"/>
	<circle fill="#CACACA" cx="-201.6" cy="96.3" r="3"/>
	<circle fill="#C9C9C9" cx="-214.7" cy="208.2" r="3"/>
	<circle fill="#C9C9C9" cx="-281" cy="116.3" r="3"/>
	<circle fill="#C8C8C8" cx="-169.5" cy="139.4" r="3"/>
	<circle fill="#C7C7C7" cx="-267.8" cy="198" r="3"/>
	<circle fill="#C6C6C6" cx="-234.7" cy="87.9" r="3"/>
	<circle fill="#C5C5C5" cx="-184.5" cy="191.9" r="3"/>
	<circle fill="#C5C5C5" cx="-292.3" cy="148.9" r="3"/>
	<circle fill="#C4C4C4" cx="-183.2" cy="107.6" r="3"/>
	<circle fill="#C3C3C3" cx="-236" cy="212.2" r="3"/>
	<circle fill="#C2C2C2" cx="-267.9" cy="98.9" r="3"/>
	<circle fill="#C1C1C1" cx="-167.4" cy="161.2" r="3"/>
	<circle fill="#C0C0C0" cx="-284.1" cy="183.3" r="3"/>
	<circle fill="#C0C0C0" cx="-212.6" cy="87.7" r="3"/>
	<circle fill="#BFBFBF" cx="-200.7" cy="207" r="3"/>
	<circle fill="#BEBEBE" cx="-290.5" cy="126.7" r="3"/>
	<circle fill="#BDBDBD" cx="-169.6" cy="125.3" r="3"/>
	<circle fill="#BCBCBC" cx="-258.1" cy="208.4" r="3"/>
	<circle fill="#BBBBBB" cx="-248.9" cy="86.8" r="3"/>
	<circle fill="#BBBBBB" cx="-173.3" cy="183.1" r="3"/>
	<circle fill="#BABABA" cx="-294.6" cy="163.1" r="3"/>
	<circle fill="#B9B9B9" cx="-191.2" cy="95.6" r="3"/>
	<circle fill="#B8B8B8" cx="-222" cy="215.7" r="3"/>
	<circle fill="#B7B7B7" cx="-280.6" cy="105.9" r="3"/>
	<circle fill="#B7B7B7" cx="-162.8" cy="147.4" r="3"/>
	<circle fill="#B6B6B6" cx="-278.2" cy="196.6" r="3"/>
	<circle fill="#B5B5B5" cx="-226.1" cy="81.9" r="3"/>
	<circle fill="#B4B4B4" cx="-186.9" cy="202.1" r="3"/>
	<circle fill="#B3B3B3" cx="-297.4" cy="139.8" r="3"/>
	<circle fill="#B2B2B2" cx="-173.3" cy="111" r="3"/>
	<circle fill="#B2B2B2" cx="-245.6" cy="216.4" r="3"/>
	<circle fill="#B1B1B1" cx="-263.6" cy="89.3" r="3"/>
	<circle fill="#B0B0B0" cx="-164.1" cy="171.2" r="3"/>
	<circle fill="#AFAFAF" cx="-293.3" cy="178" r="3"/>
	<circle fill="#AEAEAE" cx="-202.3" cy="85.4" r="3"/>
	<circle fill="#ADADAD" cx="-206.8" cy="215.6" r="3"/>
	<circle fill="#ADADAD" cx="-291.8" cy="116.2" r="3"/>
	<circle fill="#ACACAC" cx="-161.5" cy="132.2" r="3"/>
	<circle fill="#ABABAB" cx="-268.7" cy="208.6" r="3"/>
	<circle fill="#AAAAAA" cx="-241.2" cy="79.4" r="3"/>
	<circle fill="#A9A9A9" cx="-174" cy="193.7" r="3"/>
	<circle fill="#A9A9A9" cx="-301.2" cy="154.7" r="3"/>
	<circle fill="#A8A8A8" cx="-180.7" cy="97.3" r="3"/>
	<circle fill="#A7A7A7" cx="-230.9" cy="221.5" r="3"/>
	<circle fill="#A6A6A6" cx="-277.9" cy="95.6" r="3"/>
	<circle fill="#A5A5A5" cx="-157.8" cy="156.9" r="3"/>
	<circle fill="#A4A4A4" cx="-288.2" cy="192.9" r="3"/>
	<circle fill="#A4A4A4" cx="-216.1" cy="77.9" r="3"/>
	<circle fill="#A3A3A3" cx="-191.5" cy="211.8" r="3"/>
	<circle fill="#A2A2A2" cx="-300.5" cy="129.4" r="3"/>
	<circle fill="#A1A1A1" cx="-164.1" cy="116.5" r="3"/>
	<circle fill="#A0A0A0" cx="-256.2" cy="218.5" r="3"/>
	<circle fill="#9F9F9F" cx="-257.2" cy="80.6" r="3"/>
	<circle fill="#9F9F9F" cx="-163" cy="182" r="3"/>
	<circle fill="#9E9E9E" cx="-301.3" cy="170.8" r="3"/>
	<circle fill="#9D9D9D" cx="-191.5" cy="85.4" r="3"/>
	<circle fill="#9C9C9C" cx="-214.9" cy="223" r="3"/>
	<circle fill="#9B9B9B" cx="-290.8" cy="105.4" r="3"/>
	<circle fill="#9B9B9B" cx="-154.9" cy="140.9" r="3"/>
	<circle fill="#9A9A9A" cx="-279.5" cy="206.7" r="3"/>
	<circle fill="#999999" cx="-231.9" cy="73.6" r="3"/>
	<circle fill="#989898" cx="-177" cy="204.3" r="3"/>
	<circle fill="#979797" cx="-306.1" cy="144.9" r="3"/>
	<circle fill="#969696" cx="-170.4" cy="101.3" r="3"/>
	<circle fill="#969696" cx="-241.2" cy="225.5" r="3"/>
	<circle fill="#959595" cx="-272.9" cy="85.7" r="3"/>
	<circle fill="#949494" cx="-154.8" cy="167.6" r="3"/>
	<circle fill="#939393" cx="-297.6" cy="187" r="3"/>
	<circle fill="#929292" cx="-205.2" cy="75.9" r="3"/>
	<circle fill="#919191" cx="-198.3" cy="220.7" r="3"/>
	<circle fill="#919191" cx="-301.5" cy="118.3" r="3"/>
	<circle fill="#909090" cx="-155.8" cy="124.1" r="3"/>
	<circle fill="#8F8F8F" cx="-267.4" cy="218.5" r="3"/>
	<circle fill="#8E8E8E" cx="-248.8" cy="73.1" r="3"/>
	<circle fill="#8D8D8D" cx="-164.1" cy="193.2" r="3"/>
	<circle fill="#8D8D8D" cx="-308.1" cy="161.8" r="3"/>
	<circle fill="#8C8C8C" cx="-180.4" cy="87.5" r="3"/>
	<circle fill="#8B8B8B" cx="-224.5" cy="228.9" r="3"/>
	<circle fill="#8A8A8A" cx="-287.7" cy="94.5" r="3"/>
	<circle fill="#898989" cx="-149.9" cy="151.1" r="3"/>
</g>
<g>
	<text transform="matrix(1 0 0 1 -194.1294 235.8277)" font-family="'Montserrat-Bold'" font-size="40px">L</text>
	<text transform="matrix(1 0 0 1 -171.6098 235.8277)" font-family="'Montserrat-Bold'" font-size="40px">D</text>
	<text transform="matrix(1 0 0 1 -141.7299 235.8277)" font-family="'Montserrat-Bold'" font-size="40px">A</text>
	<text transform="matrix(1 0 0 1 -113.0102 235.8277)" font-family="'Montserrat-Bold'" font-size="40px">V</text>
	
		<text transform="matrix(1.1825 0 0 1 -193.8179 273.6737)" fill="#D40000" font-family="'Montserrat-SemiBold'" font-size="40.233px">2017</text>
</g>
</svg>
